<?xml version="1.0" standalone="no"?>
<!DOCTYPE svg PUBLIC "-//W3C//DTD SVG 20010904//EN"
 "http://www.w3.org/TR/2001/REC-SVG-20010904/DTD/svg10.dtd">
<svg version="1.0" xmlns="http://www.w3.org/2000/svg"
 width="2000.000000pt" height="2000.000000pt" viewBox="0 0 2000.000000 2000.000000"
 preserveAspectRatio="xMidYMid meet">

<g transform="translate(0.000000,2000.000000) scale(0.100000,-0.100000)"
fill="#000000" stroke="none">
<path d="M9924 18407 c-25 -22 -26 -25 -15 -60 8 -25 19 -37 31 -37 11 0 20
-10 24 -27 3 -16 5 -174 3 -353 -1 -179 0 -353 2 -387 4 -65 13 -93 25 -74 4
6 4 11 -1 11 -9 0 -7 648 2 745 5 50 10 63 28 70 12 6 26 25 31 44 9 31 7 36
-22 62 -39 35 -72 37 -108 6z m27 -15 c-6 -11 -7 -22 -4 -26 3 -3 -1 -6 -9 -6
-26 0 -29 27 -5 43 27 18 32 15 18 -11z m-1 -52 c8 -5 11 -12 7 -16 -4 -4 -15
0 -24 9 -18 18 -8 23 17 7z"/>
<path d="M11045 17642 c-25 -5 -53 -29 -75 -65 -26 -42 -12 -93 40 -139 l41
-37 -11 -1173 c-10 -964 -9 -1178 1 -1203 14 -31 15 -3 29 989 2 148 4 167 16
145 13 -24 13 -23 14 14 0 20 -4 37 -10 37 -5 0 -10 -6 -10 -12 0 -10 -3 -9
-9 1 -9 13 -5 1118 4 1178 3 21 20 48 45 73 34 34 40 46 40 84 0 36 -6 49 -31
74 -33 33 -53 40 -84 34z"/>
<path d="M8835 17616 c-58 -58 -44 -144 34 -198 12 -9 23 -25 24 -37 1 -21 2
-21 15 -4 8 12 9 19 2 21 -6 2 9 21 34 43 52 46 61 75 41 127 -28 68 -105 93
-150 48z"/>
<path d="M9955 17415 c-61 -74 -65 -85 -49 -124 8 -20 23 -43 33 -52 11 -9 21
-27 23 -40 1 -13 9 -24 16 -24 7 0 17 -7 22 -15 7 -11 10 -11 10 -2 0 7 17 31
38 53 49 53 61 77 62 117 0 54 -36 95 -105 116 -15 4 -28 -3 -50 -29z"/>
<path d="M8894 17200 c0 -85 2 -120 3 -77 2 42 2 112 0 155 -1 42 -3 7 -3 -78z"/>
<path d="M9971 17124 c0 -11 3 -14 6 -6 3 7 2 16 -1 19 -3 4 -6 -2 -5 -13z"/>
<path d="M9971 17074 c0 -11 3 -14 6 -6 3 7 2 16 -1 19 -3 4 -6 -2 -5 -13z"/>
<path d="M9417 16903 c-11 -10 -8 -70 5 -98 9 -21 18 -25 54 -25 33 0 46 5 54
19 29 56 -4 111 -68 111 -21 0 -42 -3 -45 -7z"/>
<path d="M10422 16902 c-7 -5 -15 -25 -19 -45 -4 -29 -1 -42 19 -65 22 -27 25
-27 55 -15 60 24 51 125 -12 131 -17 1 -36 -2 -43 -6z"/>
<path d="M9974 16690 c0 -102 2 -143 3 -92 2 50 2 134 0 185 -1 50 -3 9 -3
-93z"/>
<path d="M9972 16470 c0 -19 2 -27 5 -17 2 9 2 25 0 35 -3 9 -5 1 -5 -18z"/>
<path d="M8887 16220 c-3 -47 -3 -116 2 -155 8 -69 8 -69 11 -20 1 28 4 68 6
90 2 22 0 69 -4 105 l-8 65 -7 -85z"/>
<path d="M11085 16230 c-3 -5 -1 -10 4 -10 6 0 11 5 11 10 0 6 -2 10 -4 10 -3
0 -8 -4 -11 -10z"/>
<path d="M9973 15922 c-8 -20 -9 -64 -4 -177 3 -61 5 -73 11 -50 4 17 8 24 9
18 0 -7 5 -13 11 -13 6 0 8 30 6 75 -4 58 -2 75 9 75 8 0 17 -9 20 -20 3 -11
14 -20 23 -20 12 0 13 3 4 12 -7 7 -12 22 -12 33 0 28 -10 37 -26 24 -10 -9
-15 -7 -20 5 -3 9 -4 22 -1 30 3 8 -1 17 -9 20 -9 3 -18 -2 -21 -12z"/>
<path d="M9895 15789 c-4 -6 -4 -13 -1 -16 3 -4 0 -13 -8 -22 -19 -22 -47
-124 -37 -134 10 -10 -9 -69 -30 -94 -9 -10 -16 -29 -17 -43 -1 -24 -1 -25 15
-5 33 42 53 102 49 146 -3 29 3 59 16 88 27 60 37 119 13 80z"/>
<path d="M10126 15670 c3 -14 11 -32 16 -40 6 -10 7 -7 2 10 -3 14 -11 32 -16
40 -6 10 -7 7 -2 -10z"/>
<path d="M10110 15594 c0 -3 8 -19 17 -35 19 -31 40 -34 35 -3 -5 24 -52 59
-52 38z"/>
<path d="M10490 15526 c0 -8 46 -64 102 -123 398 -421 442 -473 452 -529 5
-25 10 -33 16 -25 6 10 22 -1 61 -41 30 -30 65 -69 79 -86 23 -31 50 -42 50
-22 0 10 -29 60 -40 70 -30 25 -150 176 -151 189 0 9 -28 41 -62 71 -34 30
-158 154 -275 277 -117 122 -217 225 -222 228 -6 3 -10 -1 -10 -9z"/>
<path d="M10150 15507 c0 -8 10 -22 22 -33 18 -15 20 -16 9 -2 -7 10 -11 25
-7 33 3 9 0 15 -9 15 -8 0 -15 -6 -15 -13z"/>
<path d="M9777 15463 c-4 -3 -7 -11 -7 -17 0 -6 5 -5 12 2 6 6 9 14 7 17 -3 3
-9 2 -12 -2z"/>
<path d="M9667 15322 c-53 -53 -97 -101 -97 -106 0 -9 160 150 189 187 29 37
2 13 -92 -81z"/>
<path d="M10240 15395 c13 -14 26 -25 28 -25 3 0 -5 11 -18 25 -13 14 -26 25
-28 25 -3 0 5 -11 18 -25z"/>
<path d="M10310 15312 c0 -12 19 -26 26 -19 2 2 -2 10 -11 17 -9 8 -15 8 -15
2z"/>
<path d="M10022 15230 c2 -71 -14 -115 -28 -74 -3 10 -10 30 -14 44 -5 14 -12
40 -15 58 -4 17 -8 32 -10 32 -15 0 -249 -235 -304 -305 -17 -22 -53 -67 -79
-101 -50 -65 -218 -250 -265 -293 -16 -14 -52 -60 -81 -101 -118 -167 -342
-416 -384 -427 -28 -6 -81 -45 -95 -70 -6 -9 2 -25 22 -49 23 -26 30 -41 25
-58 -3 -13 1 -43 10 -67 40 -113 48 -134 75 -187 15 -31 34 -73 40 -94 7 -20
18 -39 25 -41 8 -3 42 -1 77 5 89 16 135 5 182 -43 l40 -39 -6 -74 c-10 -134
-44 -153 -193 -110 -56 16 -84 11 -84 -16 0 -20 52 -134 93 -202 24 -39 38
-51 85 -69 85 -32 140 -35 187 -10 26 14 58 21 92 21 60 0 75 24 22 35 -20 5
-29 12 -27 23 5 26 26 25 54 -3 15 -15 42 -29 61 -32 46 -8 120 28 157 74 40
50 136 262 136 300 0 28 -5 35 -34 47 -18 8 -37 19 -40 25 -4 6 -19 11 -34 11
-15 0 -38 7 -50 16 -26 18 -49 10 -31 -12 20 -24 2 -58 -45 -83 -61 -32 -98
-24 -157 33 -50 49 -74 108 -63 153 7 29 57 127 78 152 22 27 90 51 149 51 73
0 115 -21 186 -95 46 -48 81 -69 81 -49 0 3 -21 29 -46 57 -83 93 -114 181
-94 269 27 119 76 227 124 272 27 25 31 35 30 76 -2 40 -9 57 -48 106 -76 99
-69 142 32 201 88 50 96 60 112 130 15 68 32 84 38 37 2 -16 11 -28 23 -31 20
-6 25 -19 10 -25 -12 -4 6 -48 19 -48 6 0 8 5 5 10 -3 6 -2 10 3 10 9 0 95
-70 100 -82 2 -5 10 -8 17 -8 8 0 16 -8 19 -17 4 -10 25 -38 49 -63 23 -26 60
-68 82 -95 22 -28 44 -55 50 -62 5 -7 16 -19 23 -27 6 -8 12 -17 12 -19 0 -2
23 -28 51 -58 28 -30 72 -79 98 -109 25 -30 65 -75 89 -100 23 -25 42 -48 42
-51 0 -3 10 -17 21 -30 12 -13 46 -55 75 -94 30 -38 72 -92 94 -119 21 -27 38
-52 37 -55 -1 -3 9 -30 23 -59 28 -61 35 -58 65 26 18 51 25 60 73 85 62 34
84 30 107 -19 12 -25 22 -34 34 -31 31 8 43 -21 44 -106 1 -69 -3 -91 -26
-141 -15 -32 -27 -64 -27 -71 0 -11 53 -30 74 -26 45 9 81 2 98 -18 10 -13 18
-19 18 -15 1 5 8 -3 16 -18 8 -16 18 -28 23 -28 4 0 14 -19 21 -42 8 -24 17
-47 21 -53 9 -14 23 -104 21 -140 -3 -50 7 -75 33 -85 20 -8 25 -16 25 -45 0
-31 -4 -37 -31 -47 -34 -12 -38 -46 -4 -39 11 2 35 4 54 6 39 2 140 75 148
106 3 10 10 20 17 20 50 6 56 5 56 -8 0 -8 7 -27 16 -42 15 -26 15 -30 -6 -72
-13 -24 -36 -61 -52 -81 -29 -37 -32 -38 -91 -38 -34 0 -80 -5 -102 -10 -27
-6 -74 -5 -148 5 -125 16 -172 40 -270 134 -32 31 -63 56 -68 56 -5 0 -18 -13
-28 -28 l-18 -28 -7 31 c-3 18 -3 36 0 41 8 14 12 199 3 199 -4 0 -19 -24 -32
-52 -23 -50 -50 -83 -108 -135 -43 -39 -162 -63 -311 -63 -200 0 -281 18 -390
87 -25 16 -28 16 -45 1 -12 -11 -27 -15 -42 -11 -14 4 -37 -2 -60 -15 l-38
-21 -33 24 c-42 31 -48 31 -60 -1 -11 -29 -33 -27 -82 8 -35 24 -36 45 -3 60
16 7 27 22 31 44 5 27 16 39 61 64 l55 32 34 -33 c25 -24 34 -42 34 -65 0 -39
20 -57 54 -48 33 8 34 37 1 69 -13 14 -29 41 -34 61 -6 20 -16 44 -24 53 -20
23 -35 85 -42 171 -8 101 -13 120 -29 120 -17 0 -26 -22 -26 -63 0 -100 -107
-324 -196 -412 -69 -67 -184 -124 -272 -136 -75 -9 -228 -2 -282 12 -156 43
-206 79 -255 187 -14 31 -35 74 -46 94 -10 20 -19 44 -19 52 0 29 -27 16 -34
-16 -8 -39 -23 -58 -48 -58 -17 0 -19 5 -13 45 7 40 4 47 -23 75 -45 45 -65
40 -107 -23 -23 -35 -7 -57 20 -27 32 35 50 27 60 -30 8 -46 -14 -75 -69 -89
-67 -17 -81 -14 -117 21 -72 72 -74 143 -7 210 39 39 42 40 88 34 55 -7 60 -1
60 69 0 26 -6 47 -15 55 -9 7 -15 29 -15 51 0 28 -4 39 -15 39 -20 0 -19 9 5
70 l20 52 -41 46 c-22 26 -49 47 -59 48 -9 1 -42 18 -72 38 -47 31 -98 47 -98
31 0 -2 16 -37 35 -76 19 -40 35 -77 35 -82 0 -10 -31 -83 -50 -117 -8 -16
-21 -17 -57 -6 -22 7 -23 4 -23 -38 0 -56 -20 -80 -192 -233 -65 -58 -118
-110 -118 -117 0 -7 6 -21 14 -31 13 -18 16 -17 64 17 27 20 70 47 94 60 25
13 56 35 69 48 29 30 89 73 89 64 0 -3 -31 -35 -70 -71 -83 -78 -90 -100 -29
-94 9 1 27 -10 38 -25 19 -24 21 -39 19 -98 l-3 -71 -32 -3 c-18 -2 -48 4 -67
13 -30 14 -35 22 -41 64 l-6 48 -42 -5 c-48 -5 -84 -26 -92 -53 -4 -10 -14
-19 -23 -19 -22 1 -66 40 -85 76 -23 45 -64 85 -97 94 -37 11 -38 2 -4 -47 29
-43 84 -159 84 -179 0 -16 16 -27 44 -28 22 -1 31 -23 18 -42 -4 -6 -22 -15
-41 -19 -31 -7 -33 -5 -28 14 3 11 -1 25 -9 32 -8 6 -14 22 -14 35 0 57 -41
28 -232 -167 l-187 -191 -11 -213 c-12 -263 -13 -2166 -1 -2400 11 -191 20
-245 56 -316 23 -45 160 -189 319 -337 32 -29 68 -69 81 -88 29 -43 138 -165
238 -265 42 -43 77 -83 77 -89 0 -5 5 -10 11 -10 6 0 9 -6 7 -12 -5 -13 26
-49 39 -47 3 1 17 -17 31 -40 20 -34 21 -42 9 -47 -8 -3 -26 6 -40 20 -15 14
-22 26 -16 26 6 0 7 5 3 11 -3 6 -15 9 -25 6 -18 -5 -33 7 -34 26 0 4 -4 7
-10 8 -5 0 -17 7 -26 15 -9 8 -18 12 -21 9 -3 -3 -20 13 -37 37 -17 24 -27 44
-21 46 19 7 10 24 -10 19 -10 -3 -24 1 -31 9 -6 8 -17 14 -24 14 -12 0 -44 39
-56 70 -3 8 -12 15 -19 15 -7 0 -23 18 -34 40 -19 37 -49 69 -215 229 -28 26
-49 52 -46 56 5 8 -36 37 -96 70 -15 8 -42 35 -60 60 -18 25 -38 50 -44 55
-27 23 -91 169 -100 227 -4 24 -7 672 -8 1440 l-2 1397 -44 45 c-80 82 -81 80
-82 -122 0 -98 -4 -203 -8 -235 -6 -51 -11 -61 -47 -89 -21 -18 -62 -55 -89
-83 -28 -27 -126 -123 -218 -213 -188 -183 -182 -168 -100 -241 210 -189 419
-418 399 -438 -3 -3 -75 61 -158 143 -338 330 -361 345 -431 279 -36 -35 -38
-38 -23 -59 28 -44 273 -282 347 -338 41 -31 95 -78 121 -105 56 -58 168 -195
168 -205 0 -20 -27 -4 -64 40 -52 61 -232 240 -271 270 -16 13 -94 86 -173
163 -101 98 -150 139 -167 139 -16 0 -51 -29 -119 -101 -53 -56 -96 -108 -96
-117 0 -10 28 -39 62 -67 35 -27 99 -86 144 -130 253 -251 476 -465 494 -475
16 -8 20 -8 20 3 0 11 38 37 55 37 9 0 45 -70 45 -88 0 -11 7 -33 15 -48 19
-38 19 -114 -1 -142 -12 -18 -14 -42 -9 -131 3 -60 12 -131 20 -158 24 -79 15
-122 -20 -93 -12 10 -17 7 -26 -16 -27 -71 -31 -349 -6 -429 4 -11 9 -36 12
-55 12 -79 18 -100 27 -100 5 0 7 -3 4 -8 -2 -4 3 -23 11 -42 9 -19 15 -38 15
-43 -1 -4 9 -25 23 -47 14 -22 25 -44 25 -49 0 -5 6 -16 13 -23 6 -7 19 -26
27 -43 8 -16 27 -43 42 -59 15 -16 30 -38 34 -48 3 -10 10 -18 15 -18 5 0 9
-5 9 -10 0 -17 43 -70 56 -70 7 0 16 -9 19 -20 4 -11 11 -18 16 -15 5 4 12 -1
15 -9 3 -9 10 -14 14 -11 5 3 11 1 15 -5 3 -5 32 -22 63 -37 31 -14 59 -30 60
-35 2 -4 9 -8 16 -8 7 0 39 -28 72 -61 32 -34 98 -101 147 -150 48 -48 87 -92
87 -99 0 -6 5 -8 10 -5 6 4 10 -5 10 -19 0 -16 6 -26 15 -26 8 0 15 -6 15 -13
0 -7 9 -18 20 -25 11 -7 20 -19 20 -27 0 -8 4 -15 9 -15 4 0 34 -24 66 -53 31
-28 65 -56 75 -62 10 -5 38 -28 64 -50 25 -22 57 -49 72 -60 14 -11 31 -26 37
-34 34 -40 174 -177 256 -251 51 -47 117 -114 146 -150 74 -91 93 -110 181
-183 81 -65 229 -167 244 -167 4 0 13 -6 19 -14 22 -26 81 -49 95 -37 10 8 17
7 26 -4 7 -8 21 -15 31 -15 10 0 25 -12 33 -27 16 -32 109 -123 124 -123 5 0
12 -7 16 -15 3 -8 12 -15 21 -15 11 0 10 5 -7 23 -13 12 -26 21 -30 19 -5 -1
-8 5 -8 13 0 8 -34 49 -76 92 -42 43 -82 89 -89 103 -15 29 -165 202 -264 304
-36 37 -117 111 -179 163 -62 52 -130 117 -151 146 -21 29 -87 97 -147 152
-97 88 -434 415 -521 504 -18 19 -33 38 -33 42 0 28 90 -13 138 -62 35 -36 52
-33 34 6 -10 21 -9 25 4 25 21 0 82 -43 144 -100 14 -14 66 -61 115 -105 132
-120 210 -197 228 -227 10 -15 56 -60 104 -100 129 -109 212 -188 227 -219
l13 -27 -52 32 c-29 17 -81 57 -115 89 -35 31 -66 57 -71 57 -40 0 7 -53 236
-265 71 -66 167 -157 214 -201 47 -45 131 -121 186 -169 55 -48 116 -106 135
-128 53 -64 149 -154 215 -203 100 -74 109 -81 148 -121 37 -37 38 -40 34 -93
-7 -71 -17 -120 -26 -120 -11 0 3 -91 17 -117 15 -27 16 -120 1 -161 l-11 -31
-21 20 c-12 11 -28 17 -35 14 -10 -4 -13 0 -9 15 3 13 0 20 -9 20 -8 0 -19 10
-24 23 -5 12 -9 16 -9 9 -1 -16 -58 -72 -72 -72 -9 0 -33 -49 -31 -61 1 -4 -3
-22 -8 -40 -6 -19 -14 -133 -20 -254 -18 -404 -30 -594 -40 -619 -7 -18 -17
-26 -34 -26 -20 0 -27 8 -39 44 -8 25 -13 47 -9 50 3 3 0 6 -7 6 -7 0 -11 7
-8 15 4 8 2 17 -3 20 -6 4 -10 16 -10 28 -1 30 -26 61 -41 52 -9 -6 -10 -1 -5
18 5 22 3 25 -13 22 -18 -3 -30 11 -37 44 -1 7 -8 19 -14 25 -9 8 -11 6 -8 -9
2 -16 -2 -19 -19 -18 -15 2 -23 -3 -23 -12 0 -8 -4 -15 -10 -15 -16 0 -12 -46
5 -60 8 -7 15 -18 15 -25 0 -7 7 -15 15 -19 8 -3 15 -15 15 -26 0 -11 9 -28
20 -37 11 -10 20 -26 20 -36 0 -9 7 -20 15 -23 8 -4 15 -14 15 -23 0 -10 10
-28 23 -41 22 -25 38 -49 56 -85 5 -11 50 -60 101 -110 145 -143 257 -271 286
-326 10 -21 15 -88 19 -276 9 -469 15 -567 30 -579 8 -6 15 -16 15 -23 0 -6 4
-11 8 -11 4 0 8 129 7 288 0 230 3 292 14 312 8 14 127 135 264 270 137 135
304 299 371 365 171 170 269 255 292 255 22 0 16 -44 -12 -86 -14 -21 -56 -68
-93 -104 -154 -153 -221 -236 -206 -260 3 -5 -27 -41 -67 -80 -68 -66 -94
-105 -62 -93 8 3 14 10 14 15 0 6 9 8 20 5 38 -10 160 84 327 250 87 87 193
190 234 228 41 39 93 95 116 125 22 30 59 73 82 95 24 22 68 69 98 105 51 59
99 111 322 343 88 92 104 117 84 135 -9 9 -10 18 -3 32 13 25 13 33 -2 23 -20
-12 -38 -12 -38 -1 0 5 -10 18 -22 29 -19 16 -20 18 -4 12 13 -4 17 -3 13 4
-10 16 3 43 21 43 8 0 13 3 9 6 -5 6 33 59 106 147 28 33 37 52 32 66 -3 11
-1 30 5 41 30 55 578 620 1162 1195 128 127 361 357 518 511 157 155 299 288
317 298 30 15 35 15 80 -3 27 -10 93 -26 148 -35 104 -16 114 -14 115 26 0 9
4 19 8 22 5 3 12 47 15 98 10 144 18 161 116 263 48 50 115 124 148 165 138
171 284 324 437 461 21 19 96 98 167 176 168 183 209 208 360 218 57 3 111 6
119 6 398 -2 1058 4 1065 11 6 6 -930 18 -1240 17 -115 -1 -221 -4 -234 -8
l-24 -6 27 -12 c32 -16 33 -28 1 -49 -35 -23 -65 -10 -65 27 0 16 -2 29 -6 29
-9 0 -122 -79 -129 -90 -4 -6 -30 -28 -58 -49 -29 -21 -80 -65 -114 -97 -108
-102 -166 -143 -179 -123 -3 6 -12 8 -20 5 -11 -4 -13 0 -9 17 4 16 0 25 -17
32 -13 6 -22 16 -20 23 1 7 -2 12 -8 12 -5 0 -7 7 -4 15 4 8 2 15 -3 15 -5 0
-33 22 -61 48 -45 42 -58 64 -61 106 -1 4 -8 6 -15 3 -10 -4 -13 -1 -10 7 9
23 -21 25 -65 5 -44 -20 -193 -144 -346 -290 -49 -47 -110 -101 -135 -119 -25
-19 -202 -190 -395 -380 -192 -190 -412 -398 -487 -463 -76 -65 -138 -121
-138 -126 0 -9 -172 -183 -302 -306 -102 -96 -107 -105 -154 -275 -21 -72 -25
-74 -18 -9 10 92 33 153 81 220 49 68 371 393 798 804 278 267 370 359 451
445 28 30 84 84 125 120 129 113 419 399 483 476 14 18 26 37 26 44 0 6 5 8
10 5 6 -3 10 1 10 10 0 9 5 13 10 10 6 -3 10 2 11 12 1 10 2 35 3 55 2 28 -1
38 -16 41 -10 3 -18 12 -18 21 0 9 -7 16 -15 16 -9 0 -15 9 -15 23 0 12 -9 28
-20 35 -11 7 -20 17 -20 23 0 7 -9 20 -21 30 -12 10 -18 23 -13 30 4 7 3 9 -4
5 -6 -3 -15 9 -22 30 -7 19 -18 38 -25 40 -7 3 -19 19 -25 35 -7 16 -16 29
-20 29 -4 0 -12 25 -18 55 -9 42 -8 64 2 99 8 25 11 48 8 51 -3 3 4 12 16 21
45 31 3 99 -162 262 -88 88 -107 102 -123 94 -10 -6 -65 -59 -123 -119 -57
-59 -271 -277 -475 -483 -204 -206 -405 -412 -447 -457 -43 -46 -84 -83 -93
-83 -20 0 -19 6 7 43 85 121 252 296 372 392 38 30 305 284 380 361 57 59 133
142 186 203 36 41 84 92 108 115 74 69 74 72 1 138 -35 32 -70 58 -78 58 -7 0
-39 -21 -70 -47 -97 -81 -651 -637 -753 -755 -89 -103 -156 -168 -174 -168
-15 0 10 58 38 85 17 17 58 64 92 105 33 41 72 84 86 95 13 11 133 127 265
259 132 131 290 280 350 331 61 50 116 104 124 118 12 23 11 29 -9 59 -54 78
-196 195 -215 177 -2 -2 -83 -80 -180 -174 -271 -259 -380 -371 -468 -475 -44
-52 -86 -99 -93 -103 -20 -12 -18 23 3 53 38 56 226 260 303 330 167 150 391
374 396 396 8 31 -50 104 -83 104 -14 0 -44 -21 -82 -57 -33 -32 -124 -121
-203 -198 -207 -202 -305 -288 -313 -274 -4 6 105 122 269 286 153 153 279
286 282 299 3 13 12 24 20 24 27 0 324 274 324 299 0 8 -138 137 -163 153 -7
4 -51 8 -98 8 -68 0 -89 -3 -100 -17 -11 -12 -15 -64 -18 -203 -3 -160 -1
-191 13 -212 16 -24 16 -25 -9 -24 -18 1 -77 51 -216 185 -196 189 -253 258
-264 323 -5 28 -16 43 -46 63 -22 14 -44 36 -48 48 -5 13 -12 77 -16 144 -4
66 -11 126 -15 133 -6 9 -15 8 -38 -4 -31 -16 -59 -51 -80 -98 -25 -59 -50
-41 -262 186 -138 148 -212 216 -235 216 -3 0 -14 -19 -26 -41 -17 -35 -19
-46 -10 -67 10 -22 10 -24 -6 -17 -51 22 -68 18 -111 -29 -23 -25 -44 -46 -47
-46 -2 0 7 23 20 52 23 51 139 176 158 170 4 -1 6 7 2 18 -5 15 0 27 14 39 12
10 21 22 21 26 0 4 14 29 31 56 35 54 84 82 162 93 30 5 58 17 75 32 15 14 22
23 15 19 -8 -3 -15 4 -19 20 -4 18 -11 24 -21 21 -8 -3 -20 -6 -27 -6 -8 0
-24 -10 -37 -23 -13 -13 -40 -34 -59 -47 -19 -13 -39 -29 -45 -35 -5 -6 -26
-23 -46 -38 -20 -14 -65 -64 -100 -111 -35 -47 -67 -85 -70 -86 -4 0 -14 16
-23 35 -17 36 -34 42 -66 25 -14 -7 -32 -6 -65 6 -26 8 -49 13 -52 11 -3 -4
-10 -58 -12 -113 -1 -18 -76 -37 -114 -30 -47 9 -61 28 -58 83 2 68 25 108 77
132 24 12 48 21 54 21 5 0 10 5 10 11 0 13 -62 95 -89 118 -31 27 6 5 119 -70
63 -42 124 -87 135 -99 11 -12 32 -28 47 -36 26 -14 28 -13 28 6 0 33 -19 59
-144 189 -118 125 -136 151 -136 196 0 15 -14 37 -36 57 -20 18 -47 54 -59 79
l-24 46 24 36 c16 23 38 40 62 47 54 17 183 79 183 88 0 4 -127 136 -281 292
-155 157 -335 346 -399 420 -162 185 -341 356 -506 480 -32 24 -91 70 -130
102 -39 31 -74 54 -78 51 -3 -4 -6 1 -6 11 0 9 -5 14 -10 11 -6 -3 -14 4 -19
17 -5 13 -18 32 -30 42 -19 17 -21 17 -21 3 0 -10 7 -17 15 -17 14 0 19 -11
16 -37 -1 -7 3 -13 9 -13 6 0 20 -20 31 -45 11 -24 27 -49 37 -54 9 -6 13 -11
9 -11 -4 0 5 -17 20 -37 27 -37 53 -67 258 -308 51 -60 144 -162 205 -225 123
-125 187 -205 221 -272 12 -24 30 -51 40 -61 19 -18 25 -37 11 -37 -4 0 -79
73 -167 161 -88 89 -213 204 -277 255 -64 52 -172 154 -240 226 -165 177 -499
508 -512 508 -3 0 -5 -32 -4 -70z m1265 -1292 c38 -16 63 -38 63 -55 0 -22
-43 -61 -70 -63 -68 -5 -93 10 -127 74 -15 28 -14 31 7 48 24 20 75 18 127 -4z
m-2676 -401 c-6 -8 -8 -17 -4 -20 3 -4 -1 -7 -11 -7 -14 0 -15 4 -6 20 6 11
16 20 22 20 7 0 7 -4 -1 -13z m-126 -117 c-3 -5 -11 -10 -16 -10 -6 0 -7 5 -4
10 3 6 11 10 16 10 6 0 7 -4 4 -10z m-41 -35 c-7 -16 -24 -21 -24 -6 0 8 7 13
27 20 1 1 0 -6 -3 -14z m-44 -40 c-7 -9 -15 -13 -17 -11 -7 7 7 26 19 26 6 0
6 -6 -2 -15z m483 -320 c4 -28 9 -61 11 -75 1 -14 11 -38 21 -53 13 -20 15
-31 7 -39 -14 -14 -32 -2 -32 21 0 12 -9 20 -25 23 -32 6 -81 -30 -115 -85
-14 -21 -41 -52 -60 -67 -42 -33 -138 -68 -207 -74 -54 -5 -215 11 -253 25
-39 15 -105 84 -129 135 -20 43 -21 48 -6 70 8 13 21 24 28 24 25 -1 77 -36
101 -69 31 -41 73 -71 102 -71 12 0 38 7 59 15 35 15 36 18 33 58 -3 37 -1 42
17 39 25 -3 90 -21 128 -34 29 -11 37 -42 12 -52 -8 -3 -15 -9 -15 -14 0 -16
76 4 125 32 38 23 52 39 71 85 52 120 80 163 104 159 9 -2 18 -21 23 -53z
m1119 -200 c14 -32 65 -49 102 -35 54 20 81 6 72 -37 -6 -24 -16 -33 -54 -46
-26 -10 -57 -17 -69 -17 -19 0 -23 -5 -23 -31 0 -25 -22 -77 -47 -108 -7 -9
-109 96 -115 119 -9 31 11 63 49 79 26 10 28 15 25 56 -4 43 -3 45 22 45 18 0
30 -8 38 -25z m995 -113 l-2 -138 -25 -2 c-34 -3 -44 -17 -42 -55 3 -44 -20
-76 -45 -61 -10 6 -19 25 -21 43 -2 20 -12 37 -29 49 -41 27 -83 75 -83 93 0
36 42 46 150 37 33 -3 50 3 50 16 0 15 -34 31 -47 23 -12 -7 -53 11 -53 23 0
5 17 20 38 33 20 13 43 36 51 51 9 16 23 26 37 26 23 0 23 -1 21 -138z m-1923
14 c-5 -20 7 -38 51 -74 8 -7 15 -22 15 -33 0 -21 -68 -99 -87 -99 -19 0 -108
48 -125 67 -22 25 -32 96 -18 123 6 12 14 34 16 48 9 50 31 55 95 20 49 -25
58 -34 53 -52z m784 47 c2 -15 -3 -23 -18 -28 -12 -4 -28 -22 -36 -41 -8 -19
-18 -34 -24 -34 -15 0 -39 42 -46 78 -8 43 5 53 71 50 43 -3 50 -6 53 -25z
m462 -17 c0 -16 -27 -29 -41 -20 -19 11 -9 34 16 34 15 0 25 -6 25 -14z
m-2501 -13 c-31 -40 -184 -181 -191 -177 -13 8 -9 24 6 24 8 0 21 12 29 28 7
15 19 26 25 25 7 -2 12 4 12 12 0 9 8 19 17 22 18 7 41 26 75 61 25 26 47 30
27 5z m2645 -5 c10 -13 16 -43 16 -73 0 -43 -4 -55 -27 -77 -29 -27 -84 -58
-103 -58 -18 0 -11 32 27 133 39 104 57 119 87 75z m-919 -7 c3 -10 3 -25 -1
-34 -3 -9 6 -43 21 -76 15 -33 25 -67 22 -75 -8 -20 -43 -9 -62 20 -8 13 -29
31 -45 39 -26 13 -30 21 -30 56 0 29 7 47 25 64 29 30 61 32 70 6z m1170 -4
c23 -18 11 -37 -24 -37 -45 0 -69 35 -28 43 12 2 25 5 28 6 3 0 13 -5 24 -12z
m-1051 -97 c25 -27 46 -57 46 -67 0 -10 7 -28 15 -40 10 -14 12 -24 5 -28 -18
-11 -45 4 -88 48 -33 34 -43 52 -48 90 -9 63 9 62 70 -3z m646 -8 c0 -9 -10
-35 -23 -57 -21 -37 -26 -40 -71 -43 -57 -4 -83 12 -44 27 28 11 54 46 64 87
4 16 9 32 11 37 7 12 63 -33 63 -51z m1816 49 c17 -2 124 -111 135 -138 11
-31 2 -110 -15 -121 -6 -4 -41 -43 -78 -88 -68 -82 -151 -163 -197 -192 -14
-9 -28 -19 -31 -22 -3 -3 -21 -13 -40 -23 -47 -23 -80 -74 -81 -123 l-1 -39
-19 43 c-18 39 -22 41 -42 31 -30 -16 -37 -28 -37 -69 0 -53 48 -359 65 -414
8 -27 15 -56 14 -65 -1 -24 -24 31 -69 164 -23 66 -45 129 -49 140 -5 11 -16
45 -26 75 -30 92 -17 85 -207 114 -95 15 -189 29 -208 31 -289 37 -1394 65
-1770 46 -574 -30 -935 -63 -1107 -101 -57 -13 -62 -20 -86 -125 -20 -87 -60
-205 -69 -205 -11 0 -2 159 11 194 19 48 4 180 -24 214 -1 1 -16 7 -33 11 -24
7 -30 6 -26 -4 3 -7 1 -16 -5 -20 -6 -3 -11 2 -11 12 0 10 -9 33 -21 52 -14
23 -17 37 -10 44 6 6 56 14 112 18 70 4 106 11 116 22 14 14 19 13 53 -4 36
-19 48 -19 251 -10 705 33 767 34 1599 28 468 -4 923 -12 1020 -18 249 -17
527 -14 523 6 -2 6 -6 10 -10 11 -21 2 -42 17 -37 25 7 12 12 41 18 101 3 26
7 52 10 57 4 5 1 13 -6 17 -7 4 -10 4 -6 -1 4 -4 2 -13 -5 -20 -7 -8 -30 -34
-51 -60 -27 -32 -46 -45 -60 -43 -44 6 -27 108 18 108 27 0 38 21 60 118 22
94 70 192 95 192 25 0 27 -23 6 -73 -13 -32 -13 -36 2 -41 17 -7 63 18 63 34
0 5 10 12 23 16 12 4 24 10 27 14 3 4 31 25 63 47 58 39 68 41 153 34z m-1001
-40 c3 -5 -7 -19 -22 -31 -25 -19 -28 -20 -31 -5 -2 9 -1 23 2 31 6 16 42 19
51 5z m-533 -33 c104 -87 125 -117 71 -103 -16 4 -49 7 -75 6 -25 -1 -49 3
-53 9 -3 5 -1 10 6 10 8 0 9 16 4 55 -3 30 -3 55 1 55 3 0 24 -15 46 -32z
m-1201 -35 c9 -18 22 -39 28 -47 9 -11 8 -15 -5 -20 -9 -3 -21 -3 -27 1 -6 4
-27 9 -47 13 -41 6 -50 29 -25 66 22 34 55 28 76 -13z m1959 -95 c0 -10 -6
-18 -14 -18 -20 0 -46 44 -46 77 l1 28 29 -35 c16 -19 30 -43 30 -52z m-3086
45 c3 -10 10 -42 16 -71 19 -105 67 -178 91 -141 7 11 9 9 9 -6 -1 -25 -23
-55 -41 -55 -37 1 -82 80 -115 205 -12 43 -11 51 3 67 20 23 30 23 37 1z
m2988 -10 c24 -21 23 -30 -8 -70 -35 -46 -73 -44 -89 5 -5 18 -3 25 13 29 11
2 25 16 31 29 12 28 27 30 53 7z m-2539 -12 c24 -10 47 -27 51 -36 10 -26 7
-55 -6 -55 -15 0 -97 48 -125 73 -44 39 4 50 80 18z m1727 -66 c139 -10 328
-35 399 -51 109 -26 224 -43 254 -37 16 3 38 1 50 -5 32 -16 121 -39 202 -53
39 -6 88 -22 110 -36 l40 -25 -85 5 c-47 3 -161 15 -255 26 -493 59 -744 71
-1340 67 -473 -4 -578 -12 -1033 -75 -186 -26 -232 -29 -232 -12 0 14 182 60
400 101 404 77 499 90 695 99 180 7 676 5 795 -4z m-362 -479 c24 -22 55 -63
68 -89 l25 -48 -4 -627 c-6 -754 -6 -769 -18 -751 -10 16 -11 15 -14 -26 -11
-122 -10 -153 8 -172 19 -22 24 -44 5 -25 -17 17 -33 15 -18 -3 16 -19 5 -34
-20 -28 -20 5 -28 23 -10 23 6 0 10 5 10 11 0 8 -4 8 -15 -1 -16 -13 -39 -4
-29 12 9 15 -39 -1 -52 -17 -6 -8 -27 -13 -49 -12 -34 2 -42 -2 -62 -32 -13
-19 -23 -30 -23 -26 0 4 -7 2 -15 -5 -10 -8 -13 -21 -9 -33 4 -12 2 -17 -5
-13 -12 8 -20 46 -26 131 -8 119 -18 1532 -11 1599 7 65 11 73 55 119 74 77
138 82 209 13z m-1945 -28 c-1 -18 -3 -106 -5 -196 -4 -190 -21 -223 -26 -50
-4 152 7 303 21 289 6 -6 10 -25 10 -43z m2559 -98 c547 -19 768 -54 822 -131
72 -104 212 -325 250 -397 30 -56 57 -94 75 -105 43 -25 51 -22 40 15 -5 18
-9 34 -9 35 0 2 8 3 19 3 51 0 50 -70 -1 -99 -50 -28 -86 12 -238 264 -130
215 -206 285 -355 330 -69 21 -427 52 -745 65 -146 6 -271 13 -278 15 -7 3
-10 10 -7 16 5 6 29 8 69 5 33 -4 195 -11 358 -16z m-1687 -40 c-16 -4 -59 -8
-95 -9 -83 -2 -278 -42 -354 -74 -64 -26 -122 -76 -159 -134 -13 -21 -59 -98
-103 -172 -75 -128 -182 -261 -209 -261 -22 0 -35 25 -37 75 -3 42 0 48 21 56
23 9 23 8 18 -26 -3 -19 -2 -37 3 -40 13 -8 63 39 85 82 11 21 42 74 69 118
27 44 62 103 78 130 62 105 114 173 143 189 17 9 57 20 90 25 33 5 101 16 150
25 126 22 139 23 240 23 60 1 80 -2 60 -7z m727 -31 c6 -17 -2 -1253 -8 -1258
-3 -3 -14 1 -26 8 -19 12 -20 11 -14 -14 4 -15 30 -75 58 -134 44 -90 52 -117
56 -178 2 -40 1 -80 -2 -90 -9 -22 -33 12 -140 192 -46 77 -104 167 -128 200
-40 55 -71 109 -181 315 -22 41 -42 77 -45 80 -6 6 5 -166 19 -280 5 -47 13
-261 18 -477 l8 -391 26 -44 c34 -59 106 -138 107 -117 0 9 -6 29 -14 45 -8
16 -19 41 -25 57 -6 15 -17 27 -26 27 -8 0 -15 5 -15 11 0 5 5 7 10 4 12 -7
12 -3 4 19 -3 9 -11 13 -18 9 -8 -5 -8 -3 1 8 6 8 14 34 18 58 6 41 23 73 68
127 18 21 57 23 57 3 0 -5 6 -9 14 -9 14 0 38 -54 57 -132 6 -27 15 -48 19
-48 4 0 6 -11 5 -25 -2 -14 0 -25 3 -25 11 0 5 -95 -7 -118 -6 -12 -10 -25 -9
-29 4 -12 -23 -73 -33 -73 -5 0 -5 -8 -2 -17 6 -17 6 -17 -11 0 -27 27 -29 16
-5 -37 30 -69 23 -79 -54 -71 -78 9 -90 19 -44 41 20 10 34 21 31 25 -2 4 -32
23 -67 42 -34 20 -73 48 -87 62 -14 15 -38 36 -55 46 -16 11 -24 19 -17 19 16
0 7 560 -11 690 -6 47 -11 93 -9 104 1 10 -3 25 -9 32 -6 7 -9 23 -7 36 2 14
-2 22 -9 21 -7 -2 -12 0 -11 5 1 4 -10 26 -25 49 -15 24 -27 49 -27 58 0 8 -4
15 -10 15 -5 0 -10 6 -10 14 0 7 -7 19 -15 26 -15 13 -16 31 -2 41 5 4 -2 9
-16 13 -17 4 -25 12 -24 25 0 11 5 17 9 15 19 -12 6 20 -16 37 -18 14 -23 27
-21 58 1 22 -1 45 -5 51 -4 6 1 45 10 85 20 86 32 75 -105 100 -49 9 -130 32
-180 50 -49 18 -113 41 -142 51 -57 20 -90 40 -80 50 11 11 278 8 347 -4 36
-7 124 -12 195 -12 111 -1 256 -17 269 -31 2 -2 27 -63 55 -134 28 -72 64
-152 81 -179 17 -26 59 -102 93 -169 90 -174 83 -165 91 -122 4 21 4 293 0
606 -6 454 -5 571 6 584 15 18 27 19 32 4z m534 -594 c4 -303 7 -551 8 -552 1
-1 23 26 50 60 57 71 117 173 147 249 l21 53 -27 -25 c-25 -22 -27 -23 -22 -5
15 56 17 75 8 75 -6 0 -8 6 -5 14 4 11 0 13 -15 9 -17 -4 -24 3 -42 43 -28 65
-30 74 -42 179 -10 89 -9 92 19 155 39 87 52 103 101 128 49 26 152 34 233 20
67 -12 251 -67 264 -79 6 -5 16 -9 24 -9 8 0 22 -8 31 -18 9 -9 28 -23 43 -31
15 -8 30 -22 34 -33 5 -17 21 -23 52 -19 6 1 12 -3 12 -9 0 -5 -4 -10 -10 -10
-5 0 -7 -7 -4 -15 4 -8 1 -15 -5 -15 -6 0 -8 -6 -5 -13 5 -13 -32 -24 -139
-42 -22 -3 -35 -10 -31 -16 4 -7 -5 -10 -22 -9 -44 3 -68 1 -61 -6 3 -3 53 -8
111 -11 134 -6 212 16 274 79 l40 40 29 -26 c24 -23 26 -29 15 -46 -8 -14 -9
-19 -1 -18 20 5 21 -20 0 -39 -48 -45 -307 -145 -453 -175 l-61 -13 7 -70 c3
-38 8 -83 10 -99 3 -25 -2 -74 -20 -211 -2 -16 -5 -42 -5 -57 -1 -16 -5 -28
-9 -28 -13 0 -18 -36 -8 -53 7 -13 5 -15 -7 -11 -8 3 -15 10 -15 15 0 5 -5 9
-11 9 -8 0 -8 -5 1 -15 7 -8 9 -15 4 -16 -5 0 0 -4 11 -9 17 -7 17 -9 3 -9
-10 -1 -18 -6 -18 -12 0 -5 3 -8 8 -6 4 3 7 -5 7 -18 0 -16 -5 -22 -17 -20
-12 3 -18 -2 -18 -16 0 -10 4 -19 8 -19 4 0 8 -9 9 -20 1 -11 -1 -20 -5 -20
-4 0 -8 -22 -8 -49 -1 -27 -8 -59 -17 -72 -10 -13 -17 -33 -17 -46 0 -12 -6
-28 -13 -35 -7 -7 -14 -26 -15 -42 -1 -16 -6 -34 -12 -41 -5 -6 -9 -25 -8 -41
3 -90 -13 -358 -23 -370 -6 -7 -19 -16 -30 -19 -35 -11 -21 -28 17 -20 20 3
102 8 182 11 80 2 147 6 148 7 2 1 6 36 9 77 6 68 15 109 15 66 0 -9 4 -14 10
-11 9 6 11 -2 10 -72 0 -25 7 -35 34 -52 38 -24 53 -27 37 -8 -6 8 -8 16 -5
20 3 3 -1 38 -10 79 -8 40 -18 105 -21 143 -9 92 -23 158 -38 167 -6 4 -10 24
-8 47 1 23 -2 41 -8 41 -6 0 -7 11 -1 29 4 16 7 31 5 33 -6 5 -18 318 -19 493
-1 109 2 158 12 180 8 17 47 59 88 95 250 218 253 220 270 220 24 0 16 -13
-33 -55 -27 -22 -68 -58 -93 -80 -85 -77 -110 -94 -127 -88 -10 4 -14 2 -11
-8 2 -7 -8 -24 -23 -36 -46 -39 -57 -84 -50 -208 l6 -110 34 45 c18 25 35 50
38 56 2 6 19 20 38 30 19 10 32 21 29 25 -2 4 7 14 21 23 13 9 51 43 83 76 33
33 65 60 71 60 6 0 11 4 11 10 0 5 7 7 15 4 9 -4 15 0 15 9 0 21 99 22 107 1
3 -8 15 -14 26 -12 15 2 23 -3 25 -17 3 -11 8 -22 11 -25 18 -12 37 -69 40
-115 1 -27 5 -53 8 -58 2 -4 6 -24 9 -45 2 -20 7 -57 10 -82 4 -25 7 -58 7
-75 0 -16 3 -34 7 -40 3 -5 6 -30 6 -55 -1 -25 3 -48 8 -52 6 -4 5 -16 -2 -32
-8 -19 -8 -26 1 -29 12 -4 15 -41 18 -197 1 -67 -1 -86 -14 -107 -4 -6 -3 -14
3 -18 13 -8 13 -52 0 -60 -5 -3 -10 -11 -10 -16 0 -6 4 -8 8 -5 10 6 9 -55 -2
-72 -4 -7 -5 -20 -2 -28 3 -8 0 -17 -8 -20 -8 -3 -12 -18 -10 -40 1 -18 -2
-34 -7 -34 -5 0 -9 -7 -9 -15 0 -8 -4 -15 -10 -15 -5 0 -10 -7 -10 -15 0 -8
-4 -15 -10 -15 -5 0 -10 -7 -10 -15 0 -8 -4 -15 -9 -15 -5 0 -12 -11 -15 -25
-4 -14 -10 -25 -15 -25 -13 0 -77 -69 -74 -80 1 -4 -9 -11 -23 -14 -16 -4 -22
-11 -17 -19 4 -8 1 -7 -10 2 -11 9 -17 10 -17 2 0 -6 -5 -11 -11 -11 -5 0 -8
3 -6 8 3 4 -6 7 -19 7 -13 0 -24 -3 -24 -7 0 -4 -16 8 -36 27 -46 45 -55 45
-15 0 47 -53 40 -85 -22 -100 -33 -9 -80 2 -72 15 3 6 19 10 36 10 22 0 29 5
29 19 0 22 -30 35 -146 61 -51 12 -98 30 -126 49 -103 69 -185 86 -298 60 -32
-7 -46 -7 -48 1 -3 8 -8 8 -17 0 -8 -6 -11 -18 -9 -25 6 -14 -54 -63 -117 -95
-20 -11 -39 -26 -42 -34 -6 -14 19 -15 211 -10 185 5 290 1 450 -18 6 -1 12
-4 12 -7 0 -3 -120 -6 -267 -6 -148 0 -310 -4 -362 -9 l-93 -9 7 34 c4 19 16
52 26 73 21 44 25 76 9 76 -5 0 -10 5 -10 11 0 5 5 7 10 4 16 -10 12 12 -5 29
-8 8 -15 26 -15 40 0 14 -4 26 -10 26 -5 0 -10 9 -10 21 0 13 -4 18 -11 13 -9
-5 -10 1 -4 22 4 16 7 36 5 44 -10 75 16 177 44 172 9 -2 16 1 16 5 0 5 9 9
20 10 16 1 20 -4 20 -27 0 -15 4 -30 9 -32 13 -4 21 -137 10 -144 -5 -3 -6
-11 -2 -17 4 -7 9 -28 10 -47 4 -67 9 -75 45 -74 30 1 34 5 42 40 9 40 15
1274 6 1274 -3 0 -18 -31 -33 -69 -32 -80 -178 -321 -242 -401 -25 -30 -66
-85 -91 -122 -26 -38 -51 -68 -56 -68 -15 0 2 139 23 190 17 42 19 86 23 620
5 509 10 650 22 637 2 -1 6 -250 10 -552z m1572 225 c26 -58 41 -121 24 -105
-11 11 -62 129 -62 145 0 24 17 6 38 -40z m-3730 -14 c0 -14 -7 -27 -14 -30
-10 -4 -14 3 -14 23 0 15 3 31 6 34 12 11 22 -2 22 -27z m676 -374 c21 -15 66
-53 100 -84 l61 -58 2 -581 c2 -381 -1 -588 -8 -600 -15 -29 34 -68 86 -69 22
0 46 -4 54 -9 27 -17 -213 -125 -322 -145 -27 -5 -43 -15 -55 -36 -18 -28 -18
-28 -31 -8 -11 18 -6 26 62 92 41 39 97 89 124 111 l50 40 6 119 c9 152 9 514
0 825 l-6 242 -34 45 c-19 25 -51 55 -72 68 -47 30 -151 125 -151 138 0 5 21
-7 48 -27 26 -20 64 -48 86 -63z m3804 -457 c-1 -222 -3 -292 -9 -230 -11 139
-10 583 1 565 6 -9 9 -143 8 -335z m-2077 -72 c-12 -21 -57 -90 -102 -153 -44
-63 -92 -132 -105 -152 -14 -20 -32 -39 -40 -42 -20 -8 3 35 53 100 52 67 176
252 193 289 10 22 14 26 17 13 2 -9 -5 -34 -16 -55z m-1059 7 c-19 -12 -48
-23 -65 -27 l-32 -5 23 17 c24 17 65 33 92 34 8 1 0 -8 -18 -19z m4418 -503
c-1 -34 -7 -73 -14 -87 -23 -40 -199 -236 -230 -255 -40 -25 -111 -93 -500
-478 -187 -186 -364 -360 -391 -385 -28 -26 -111 -104 -185 -173 -74 -69 -155
-143 -180 -164 -25 -21 -137 -129 -250 -240 -205 -202 -390 -359 -390 -331 0
8 9 17 19 21 11 3 141 126 289 273 310 307 539 526 630 601 72 60 153 141 220
219 88 103 552 555 628 611 68 51 283 283 311 336 6 11 12 40 14 65 3 52 7 63
20 55 5 -4 9 -34 9 -68z m-4161 -429 c1 -275 5 -447 11 -464 6 -15 40 -68 77
-117 68 -93 136 -226 147 -287 6 -35 6 -35 -22 12 -77 133 -99 169 -151 238
-30 41 -65 96 -78 122 l-22 46 9 414 c5 227 10 436 10 463 1 37 4 45 10 30 5
-11 9 -217 9 -457z m561 306 c0 -85 -3 -154 -7 -154 -5 0 -9 72 -11 161 -2
108 1 158 8 154 6 -4 10 -66 10 -161z m-3 -201 c-3 -10 -5 -4 -5 12 0 17 2 24
5 18 2 -7 2 -21 0 -30z m0 -225 c-3 -8 -6 -5 -6 6 -1 11 2 17 5 13 3 -3 4 -12
1 -19z m-987 -28 c16 -5 -18 -8 -92 -9 -65 -1 -121 -1 -125 -2 -4 0 -9 4 -11
10 -4 13 189 14 228 1z m-246 -8 c3 -5 -44 -12 -103 -15 -60 -4 -113 -8 -118
-9 -4 -2 -9 2 -11 7 -5 18 221 34 232 17z m-257 -8 c-3 -3 -12 -4 -19 -1 -8 3
-5 6 6 6 11 1 17 -2 13 -5z m1499 -202 c4 -28 7 -32 20 -21 13 11 14 9 8 -17
-17 -71 -88 -214 -106 -214 -9 0 1 29 16 49 9 12 8 13 -3 6 -11 -6 -13 -4 -7
11 4 10 9 26 11 34 2 8 10 34 18 56 8 23 16 79 18 125 3 96 13 128 17 54 1
-27 5 -65 8 -83z m-724 -16 c15 -9 29 -28 32 -42 4 -13 11 -24 16 -24 5 0 12
-16 16 -35 3 -20 14 -41 24 -48 9 -6 21 -28 25 -47 4 -19 14 -44 21 -55 8 -11
14 -28 14 -37 0 -18 66 -158 79 -168 18 -14 61 -81 61 -94 0 -9 5 -16 10 -16
6 0 20 -15 30 -33 18 -30 58 -59 83 -61 5 -1 15 -10 23 -20 11 -16 14 -63 14
-225 -1 -231 -15 -574 -26 -608 -9 -32 -31 -29 -49 7 -9 17 -19 30 -24 30 -8
0 -61 112 -61 132 0 7 -7 22 -15 32 -8 11 -15 28 -15 37 0 10 -15 53 -34 96
-46 108 -57 141 -66 193 -7 49 -30 110 -67 179 -13 24 -23 52 -23 62 0 17 -10
41 -43 104 -9 17 -32 63 -52 103 -20 39 -41 72 -46 72 -5 0 -8 3 -7 8 2 11
-14 45 -28 59 -7 7 -20 34 -30 60 -10 27 -31 62 -46 78 -15 17 -31 46 -34 65
-4 19 -14 41 -21 49 -8 8 -13 25 -10 38 2 12 0 23 -4 23 -15 0 -10 37 6 50 8
7 13 16 10 20 -5 9 25 18 100 30 66 10 106 6 137 -14z m1264 -21 c16 -21 38
-19 30 3 -5 12 1 9 17 -8 15 -15 21 -29 16 -34 -5 -6 -9 -18 -9 -28 0 -11 -5
-15 -15 -12 -10 4 -15 0 -15 -15 0 -12 -8 -24 -17 -28 -10 -3 -30 -17 -45 -31
-14 -13 -31 -22 -36 -18 -5 3 -18 -1 -28 -9 -10 -8 -31 -15 -46 -15 -15 0 -30
-4 -33 -10 -3 -5 -13 -10 -22 -10 -9 0 -24 -7 -34 -16 -17 -16 -44 -11 -34 6
7 11 -7 20 -39 22 -15 1 -27 9 -28 18 0 8 -2 20 -2 27 -1 6 -4 15 -8 18 -4 4
-3 15 2 24 13 25 23 55 21 64 -4 19 82 82 98 72 5 -3 19 -1 31 3 33 12 183 -5
196 -23z m1438 -86 c-1 -13 3 -27 9 -30 19 -12 -1 -36 -49 -59 -26 -13 -88
-63 -138 -111 -74 -72 -87 -89 -68 -89 40 0 24 -27 -65 -106 -116 -103 -303
-284 -543 -524 -107 -107 -212 -206 -232 -221 -47 -32 -101 -81 -373 -344
-121 -117 -253 -240 -292 -274 -40 -35 -73 -67 -73 -72 0 -5 -62 -73 -137
-151 -132 -139 -191 -186 -213 -173 -35 22 24 99 151 196 42 32 112 97 155
145 100 110 142 153 284 289 214 204 372 350 412 379 35 26 39 33 34 59 -5 25
0 35 29 63 19 18 35 36 35 41 1 24 526 523 725 688 33 27 99 85 147 128 l88
79 -3 46 c-2 44 0 47 38 68 35 20 43 21 60 10 11 -8 19 -24 19 -37z m-4391
-118 c15 -6 27 -15 27 -21 0 -15 -52 -1 -67 18 -7 9 -13 23 -13 31 0 12 2 12
13 -2 6 -9 24 -21 40 -26z m4601 -105 c21 -33 14 -47 -42 -91 -69 -53 -277
-260 -337 -335 -55 -68 -234 -246 -320 -319 -27 -23 -68 -59 -90 -79 -22 -21
-65 -57 -95 -82 -30 -25 -64 -53 -75 -63 -11 -10 -60 -38 -110 -62 -90 -43
-101 -51 -184 -139 -24 -25 -47 -46 -51 -46 -3 0 -22 -14 -41 -31 -38 -34 -69
-53 -69 -43 0 15 185 184 201 184 5 0 9 6 9 13 0 8 17 32 38 55 27 29 51 44
86 53 26 6 71 28 99 47 105 71 515 464 650 622 45 52 84 97 87 100 38 36 120
141 120 154 0 23 27 73 42 79 33 13 66 6 82 -17z m-2387 -138 c-5 -38 -23
-112 -38 -149 -7 -18 -16 -25 -32 -23 -12 1 -27 3 -34 3 -7 1 -12 13 -12 29 1
15 -3 41 -7 57 l-7 30 23 -30 c13 -16 27 -34 31 -39 8 -9 17 9 53 107 21 55
28 60 23 15z m-1712 12 c3 -5 2 -10 -4 -10 -5 0 -13 5 -16 10 -3 6 -2 10 4 10
5 0 13 -4 16 -10z m25 -46 c0 -8 -4 -12 -10 -9 -5 3 -10 10 -10 16 0 5 5 9 10
9 6 0 10 -7 10 -16z m38 -43 c3 -8 -1 -12 -9 -9 -7 2 -15 10 -17 17 -3 8 1 12
9 9 7 -2 15 -10 17 -17z m37 -21 c3 -5 1 -10 -4 -10 -6 0 -11 5 -11 10 0 6 2
10 4 10 3 0 8 -4 11 -10z m135 -138 c0 -11 -65 39 -68 52 -2 9 11 3 32 -16 20
-17 36 -34 36 -36z m3484 -550 c3 -5 8 -27 12 -48 5 -36 3 -41 -19 -51 -14 -7
-42 -15 -62 -19 -34 -6 -36 -5 -27 12 5 11 7 25 5 32 -9 23 6 59 29 70 28 13
55 15 62 4z m-484 -178 c0 -8 -39 -41 -65 -55 -11 -7 -5 4 14 25 32 33 51 44
51 30z m-115 -113 c-3 -6 -11 -11 -17 -11 -6 0 -6 6 2 15 14 17 26 13 15 -4z
m-35 -30 c0 -11 -89 -91 -101 -91 -5 0 -9 5 -9 10 0 6 4 10 10 10 5 0 26 18
46 40 36 39 54 49 54 31z m-480 -134 c-78 -74 -154 -138 -180 -151 -16 -8 51
58 163 162 94 87 109 78 17 -11z m365 23 c-3 -5 -15 -15 -26 -21 -19 -10 -20
-9 -9 10 6 12 18 21 26 21 8 0 12 -4 9 -10z m-122 -134 c-10 -13 -32 -33 -48
-45 -17 -11 -53 -42 -80 -69 -28 -26 -75 -65 -105 -86 l-55 -38 60 57 c33 31
82 78 109 103 96 91 160 132 119 78z m-443 -60 c0 -3 -4 -8 -10 -11 -5 -3 -10
-1 -10 4 0 6 5 11 10 11 6 0 10 -2 10 -4z m620 -356 c0 -6 -9 -28 -20 -50 -34
-67 -90 -79 -90 -20 0 42 33 68 103 79 4 0 7 -4 7 -9z m-360 -20 c0 -5 -4 -10
-10 -10 -5 0 -10 -5 -10 -12 0 -19 -62 -78 -82 -78 -32 0 -19 27 35 68 54 43
67 49 67 32z m-773 -102 c-3 -8 -6 -5 -6 6 -1 11 2 17 5 13 3 -3 4 -12 1 -19z
m-67 -99 c0 -23 -13 -43 -51 -85 -55 -57 -96 -73 -83 -31 20 66 77 129 132
146 1 1 2 -13 2 -30z m168 -81 c27 2 34 -3 43 -25 11 -30 4 -77 -16 -93 -10
-8 -19 -3 -39 20 -14 18 -26 38 -26 46 0 8 -3 14 -7 14 -5 0 -17 12 -27 27
l-19 26 29 -8 c16 -5 44 -8 62 -7z m618 -44 c52 -40 41 -89 -23 -108 -34 -11
-73 35 -73 85 0 56 40 65 96 23z m-276 -260 c0 -14 -4 -22 -10 -19 -5 3 -9 17
-8 30 3 31 18 21 18 -11z m50 -504 c0 -11 -7 -20 -15 -20 -27 0 -18 30 13 39
1 1 2 -8 2 -19z m-293 -412 c20 -26 20 -57 1 -88 -12 -21 -24 -30 -34 -26 -9
3 -18 6 -20 6 -7 0 -4 106 3 113 11 11 40 8 50 -5z"/>
<path d="M8967 12694 c-13 -13 -7 -55 9 -61 18 -7 41 14 46 42 2 15 -3 21 -22
23 -14 2 -29 0 -33 -4z"/>
<path d="M11785 12510 c-3 -5 -1 -10 4 -10 6 0 11 5 11 10 0 6 -2 10 -4 10 -3
0 -8 -4 -11 -10z"/>
<path d="M11120 9576 c0 -2 7 -7 16 -10 8 -3 12 -2 9 4 -6 10 -25 14 -25 6z"/>
<path d="M11197 9529 c7 -7 15 -10 18 -7 3 3 -2 9 -12 12 -14 6 -15 5 -6 -5z"/>
<path d="M10780 9130 c0 -5 4 -10 9 -10 6 0 13 5 16 10 3 6 -1 10 -9 10 -9 0
-16 -4 -16 -10z"/>
<path d="M11890 8699 c0 -5 5 -7 10 -4 6 3 10 8 10 11 0 2 -4 4 -10 4 -5 0
-10 -5 -10 -11z"/>
<path d="M11812 8631 c-35 -33 -42 -47 -14 -32 21 11 65 61 54 61 -4 0 -22
-13 -40 -29z"/>
<path d="M11455 8300 c-3 -5 -2 -10 4 -10 5 0 13 5 16 10 3 6 2 10 -4 10 -5 0
-13 -4 -16 -10z"/>
<path d="M11368 8223 c-67 -62 -138 -133 -177 -176 -17 -19 -20 -27 -10 -27
13 0 149 126 234 218 57 62 26 51 -47 -15z"/>
<path d="M9540 15189 c0 -5 5 -7 10 -4 6 3 10 8 10 11 0 2 -4 4 -10 4 -5 0
-10 -5 -10 -11z"/>
<path d="M9886 14423 c-11 -11 -6 -42 9 -60 8 -10 21 -27 30 -38 l15 -20 15
20 c24 30 30 65 14 80 -16 14 -74 27 -83 18z"/>
<path d="M10047 14413 c-4 -3 -7 -15 -7 -25 0 -22 26 -24 34 -2 10 25 -10 45
-27 27z"/>
<path d="M9850 13863 c0 -47 8 -73 22 -73 12 0 3 74 -12 99 -7 12 -9 5 -10
-26z"/>
<path d="M8635 13823 c7 -34 48 -123 56 -123 11 0 50 90 44 101 -6 9 -88 49
-101 49 -2 0 -2 -12 1 -27z"/>
<path d="M10140 13677 c-27 -30 -30 -38 -16 -36 16 3 63 67 54 73 -2 2 -19
-15 -38 -37z"/>
<path d="M11218 13580 c-10 -13 -18 -29 -18 -35 0 -5 -14 -30 -30 -55 -30 -45
-38 -84 -20 -95 20 -12 94 146 88 189 -3 20 -4 20 -20 -4z"/>
<path d="M8725 13509 c10 -47 41 -105 60 -112 22 -9 19 7 -15 61 -16 27 -30
54 -30 60 0 6 -5 14 -11 18 -8 4 -9 -4 -4 -27z"/>
<path d="M9765 13475 c43 -37 65 -44 65 -20 0 12 -78 55 -99 55 -3 0 12 -16
34 -35z"/>
<path d="M10100 13470 c-11 -7 -12 -12 -4 -20 9 -9 17 -8 33 2 11 7 21 16 21
20 0 11 -32 10 -50 -2z"/>
<path d="M9491 13450 c-16 -9 -6 -30 15 -30 15 0 20 25 6 34 -4 2 -14 1 -21
-4z"/>
<path d="M10173 13387 c-42 -25 -53 -36 -53 -57 0 -42 69 -150 96 -150 8 0 14
-4 14 -10 0 -18 22 -10 27 10 3 11 9 20 14 20 6 0 13 9 17 20 4 11 32 34 62
52 66 40 71 61 15 69 -49 6 -77 21 -103 54 -11 14 -24 25 -28 24 -5 0 -33 -15
-61 -32z m47 -181 c0 -3 -4 -8 -10 -11 -5 -3 -10 -1 -10 4 0 6 5 11 10 11 6 0
10 -2 10 -4z"/>
<path d="M8992 13382 c-26 -4 -57 -45 -49 -65 4 -10 21 -13 64 -10 112 8 126
17 71 50 -43 25 -58 30 -86 25z"/>
<path d="M10884 13379 c-9 -15 11 -33 30 -26 9 4 13 13 10 22 -7 17 -30 20
-40 4z"/>
<path d="M7596 13314 c-7 -19 16 -50 45 -57 22 -6 25 3 7 23 -8 8 -2 7 15 -3
15 -10 27 -14 27 -9 0 15 -38 44 -48 38 -6 -3 -12 1 -16 9 -7 20 -22 19 -30
-1z"/>
<path d="M11147 13239 c-28 -33 -29 -68 -4 -170 23 -92 48 -141 87 -166 13 -9
15 -4 13 30 -1 22 5 53 13 69 17 33 12 48 -17 48 -11 0 -39 18 -62 39 -41 39
-41 39 -23 60 11 12 31 21 46 21 43 0 54 22 27 52 -32 37 -59 42 -80 17z"/>
<path d="M10855 13224 c-27 -13 -56 -24 -63 -24 -7 0 -10 -4 -7 -10 3 -5 40
-10 81 -10 l75 0 -3 32 c-4 41 -19 43 -83 12z"/>
<path d="M14503 12905 c-16 -18 -17 -28 -2 -19 8 5 10 -1 7 -19 l-5 -27 24 26
c24 26 25 54 1 54 -7 -1 -19 -7 -25 -15z"/>
<path d="M5481 12893 c-12 -13 -7 -22 38 -67 l51 -51 -20 40 c-51 97 -51 97
-69 78z"/>
<path d="M13580 11916 c-69 -69 -124 -129 -123 -133 2 -9 85 -53 101 -53 15 0
155 144 184 188 18 28 43 36 43 15 0 -7 -19 -34 -42 -60 -91 -104 -143 -169
-143 -180 0 -7 8 -16 17 -22 10 -5 64 -56 120 -112 l104 -104 52 29 c65 36
117 84 117 108 0 19 -7 30 -46 71 -11 12 -55 63 -97 114 -73 86 -89 113 -68
113 7 0 86 -68 153 -132 10 -10 21 -18 26 -18 6 0 88 -70 133 -114 10 -10 14
-27 11 -51 -4 -34 -5 -35 -47 -35 -32 0 -51 -7 -81 -31 -53 -42 -56 -50 -31
-78 l22 -24 -22 6 c-35 8 -29 -21 13 -60 52 -47 74 -42 162 44 41 40 82 73 92
73 24 0 60 -59 60 -96 0 -29 4 -33 132 -145 19 -16 25 -28 19 -37 -6 -11 -20
-7 -62 19 -30 18 -63 40 -74 49 -11 10 -37 23 -57 29 -21 7 -40 17 -43 22 -9
13 -49 11 -63 -3 -22 -22 -13 -36 56 -93 97 -82 290 -272 362 -357 83 -96 124
-140 336 -350 99 -97 208 -207 243 -244 60 -62 116 -99 133 -87 5 2 110 6 236
9 125 2 249 7 277 11 l50 8 -44 35 c-64 51 -471 455 -471 468 0 6 5 23 11 39
6 15 14 51 18 78 5 45 9 50 33 53 22 3 32 -5 58 -43 18 -26 45 -55 62 -64 16
-10 50 -42 75 -72 25 -29 52 -54 60 -55 8 -2 22 -9 31 -17 58 -49 27 -13 -65
75 -59 57 -121 119 -138 138 -16 19 -56 62 -88 96 -57 60 -67 82 -53 115 5 11
-10 29 -51 62 -113 90 -414 399 -508 522 l-20 26 -186 3 c-103 2 -192 0 -199
-4 -32 -20 41 -80 98 -80 24 0 82 -29 59 -30 -4 0 -3 -9 3 -20 10 -18 8 -18
-21 -8 -48 16 -56 -1 -25 -54 29 -50 34 -109 10 -128 -17 -15 -6 -25 -394 360
-130 129 -252 244 -271 254 -19 10 -43 32 -54 50 -35 54 -49 47 -185 -88z"/>
<path d="M6312 11768 c-19 -19 -14 -28 14 -28 18 0 25 5 22 17 -4 21 -21 26
-36 11z"/>
<path d="M5231 11588 c-32 -40 -164 -176 -291 -303 -130 -129 -240 -248 -252
-270 -25 -49 -66 -101 -130 -167 -56 -58 -90 -111 -41 -65 16 15 34 27 41 27
6 0 18 14 27 30 28 54 42 38 49 -58 4 -48 4 -96 0 -107 -20 -54 -96 -143 -230
-270 -151 -142 -203 -186 -238 -199 -15 -5 -17 -9 -7 -19 8 -8 72 -13 212 -16
215 -3 234 0 299 49 53 40 57 42 76 23 12 -13 19 -14 22 -5 2 6 8 12 14 12 10
0 193 167 312 285 34 34 108 114 164 179 57 66 129 140 160 165 56 44 177 148
237 202 71 64 104 93 173 152 39 34 72 64 72 68 0 15 -30 30 -48 25 -10 -4
-47 -33 -82 -66 -35 -33 -68 -60 -73 -60 -5 0 -92 -82 -192 -182 -156 -156
-245 -239 -375 -349 -14 -11 -37 -28 -52 -37 -16 -9 -28 -21 -28 -27 0 -5 -4
-4 -9 4 -7 10 -3 23 10 39 10 14 19 30 19 36 0 7 8 21 18 32 9 10 19 28 20 39
2 11 9 23 15 27 6 3 12 13 13 22 1 8 24 44 50 78 27 35 88 116 137 180 49 65
111 141 138 170 42 45 49 56 43 81 -4 22 3 42 35 93 23 36 41 71 41 78 0 7 18
37 40 67 47 63 49 91 5 100 -16 4 -98 7 -182 8 l-152 1 -60 -72z m-358 -1163
c-3 -9 -8 -14 -10 -11 -3 3 -2 9 2 15 9 16 15 13 8 -4z m-38 -44 c-3 -6 -11
-11 -16 -11 -5 0 -4 6 3 14 14 16 24 13 13 -3z"/>
<path d="M14815 11640 c-22 -9 -21 -9 52 -29 47 -13 83 -43 302 -254 141 -136
251 -256 251 -273 0 -5 38 -49 85 -98 47 -50 85 -82 85 -73 0 9 -15 31 -33 49
-19 18 -68 78 -109 133 -42 55 -105 128 -140 161 -35 34 -74 73 -88 86 -14 13
-67 70 -118 126 -126 137 -167 170 -222 176 -25 2 -54 1 -65 -4z"/>
<path d="M5095 11626 c-16 -8 -81 -69 -144 -137 -150 -162 -304 -322 -369
-382 -29 -26 -52 -51 -52 -54 0 -4 -7 -15 -17 -25 -9 -10 -12 -18 -6 -18 5 0
117 109 249 242 297 299 337 337 382 365 34 21 35 23 12 23 -14 -1 -38 -7 -55
-14z"/>
<path d="M6074 11589 c-14 -23 68 -64 88 -44 3 3 3 17 0 30 -4 21 -10 25 -43
25 -21 0 -41 -5 -45 -11z"/>
<path d="M5947 11426 c-14 -15 -23 -37 -22 -57 0 -51 28 -49 76 3 l39 43 -21
18 c-29 23 -46 22 -72 -7z"/>
<path d="M6236 11291 c-3 -5 -31 -25 -61 -46 -31 -20 -55 -44 -55 -53 0 -24
99 -131 385 -418 149 -150 266 -260 291 -272 38 -19 41 -20 53 -3 7 9 21 18
32 18 21 2 49 26 49 42 0 17 20 23 36 10 31 -26 24 2 -17 63 -46 67 -528 557
-617 627 -52 40 -85 51 -96 32z"/>
<path d="M5997 11095 c-90 -90 -128 -148 -121 -189 7 -40 44 -158 54 -171 4
-5 12 -30 18 -55 20 -93 108 -318 133 -343 17 -16 19 -16 32 9 l14 27 16 -24
c10 -13 17 -29 17 -35 0 -13 25 -98 48 -163 15 -41 17 -43 49 -38 45 8 212
108 353 213 114 85 130 99 130 121 0 14 -154 187 -308 345 -66 68 -161 170
-211 228 -79 91 -129 137 -153 139 -3 1 -35 -28 -71 -64z"/>
<path d="M17885 11139 c-7 -11 22 -49 37 -49 4 0 8 7 8 16 0 8 4 13 8 10 4 -3
6 -21 4 -40 -5 -47 -28 -47 -48 -1 -8 19 -18 35 -23 35 -5 0 -11 6 -13 13 -2
11 -9 11 -38 -1 -19 -8 -29 -17 -22 -19 6 -3 12 -9 12 -14 0 -6 -4 -7 -10 -4
-5 3 -10 2 -10 -4 0 -19 23 -24 32 -7 14 25 27 19 15 -8 -7 -13 -16 -22 -22
-18 -5 3 -1 -4 9 -16 13 -15 31 -22 57 -22 48 0 92 16 83 31 -3 6 0 22 7 35
12 23 10 27 -14 49 -27 26 -61 33 -72 14z m-12 -89 c-7 -28 -13 -25 -13 6 0
14 4 23 9 20 5 -3 7 -15 4 -26z"/>
<path d="M2062 11108 c-33 -40 -5 -148 38 -148 13 0 1 32 -18 48 -12 9 -13 15
-4 24 7 7 12 22 12 34 0 26 15 40 26 23 4 -7 8 -35 9 -63 1 -28 3 -54 4 -58 2
-13 31 -9 31 4 0 6 3 8 7 5 8 -9 43 22 43 39 0 7 6 14 13 17 6 2 9 7 6 11 -3
4 -21 -7 -39 -24 -26 -24 -31 -26 -27 -11 3 11 1 22 -4 25 -5 2 -4 3 3 2 37
-7 48 64 13 78 -9 3 -13 2 -10 -4 3 -6 -1 -10 -9 -10 -8 0 -18 5 -21 10 -9 14
-61 12 -73 -2z m108 -39 c0 -11 -4 -18 -10 -14 -5 3 -7 12 -3 20 7 21 13 19
13 -6z"/>
<path d="M15486 11087 c2 -7 14 -19 27 -26 21 -13 21 -12 -2 13 -27 29 -33 32
-25 13z"/>
<path d="M15629 10856 c19 -20 36 -36 38 -36 9 0 -42 60 -56 65 -9 3 0 -10 18
-29z"/>
<path d="M15721 10763 c124 -138 199 -213 199 -201 -1 13 -223 248 -236 248
-4 0 13 -21 37 -47z"/>
<path d="M17156 10598 c-18 -24 -22 -36 -15 -50 15 -27 46 -39 92 -36 40 3 42
5 45 36 8 81 -72 113 -122 50z"/>
<path d="M15761 10541 c22 -30 22 -34 8 -44 -36 -23 30 -93 76 -81 47 12 33
42 -55 114 -51 42 -53 43 -29 11z"/>
<path d="M2743 10538 c-35 -44 -12 -98 41 -98 33 0 76 33 76 59 0 37 -94 68
-117 39z"/>
<path d="M4209 10497 c-59 -54 -73 -80 -59 -107 6 -11 17 -20 24 -20 20 0 61
41 77 78 7 18 18 32 22 32 5 0 6 4 2 9 -3 5 -1 13 5 16 8 5 7 11 -1 21 -16 19
-18 19 -70 -29z"/>
<path d="M16575 10260 c-16 -4 -22 -8 -12 -9 10 0 20 -9 24 -18 12 -34 36 -53
68 -53 35 0 54 27 47 68 -3 19 -9 22 -50 21 -26 -1 -60 -5 -77 -9z"/>
<path d="M3324 10253 c-12 -8 -17 -32 -15 -65 2 -28 69 -24 109 5 17 13 28 28
24 32 -4 5 -2 6 4 2 21 -12 376 -10 420 2 18 5 -61 10 -216 14 -135 3 -261 8
-280 12 -19 3 -40 2 -46 -2z"/>
<path d="M16508 10253 c7 -3 16 -2 19 1 4 3 -2 6 -13 5 -11 0 -14 -3 -6 -6z"/>
<path d="M3948 10233 c7 -3 16 -2 19 1 4 3 -2 6 -13 5 -11 0 -14 -3 -6 -6z"/>
<path d="M14460 10229 c0 -5 5 -7 10 -4 6 3 10 8 10 11 0 2 -4 4 -10 4 -5 0
-10 -5 -10 -11z"/>
<path d="M2347 10149 c-11 -6 -27 -29 -37 -51 -44 -98 46 -161 155 -108 80 39
81 84 3 140 -43 31 -88 38 -121 19z"/>
<path d="M17578 10150 c-46 -14 -99 -51 -109 -77 -13 -36 9 -74 56 -97 83 -39
150 -16 176 61 10 30 8 37 -16 69 -21 28 -67 59 -78 53 -1 0 -14 -4 -29 -9z"/>
<path d="M1321 10120 c-21 -13 -26 -86 -7 -115 23 -35 55 -32 102 10 37 33 58
40 113 35 14 -1 21 2 17 9 -4 6 -21 11 -37 11 -17 0 -49 11 -72 24 -46 27 -97
38 -116 26z m33 -101 c-2 -4 2 -10 8 -13 7 -3 4 -5 -7 -3 -22 2 -32 45 -19 75
5 13 9 8 15 -18 4 -19 5 -38 3 -41z m44 36 c-3 -3 -9 2 -12 12 -6 14 -5 15 5
6 7 -7 10 -15 7 -18z"/>
<path d="M18579 10118 c-14 -11 -15 -21 -5 -67 12 -59 39 -88 56 -61 8 13 10
12 10 -2 0 -26 26 -22 49 8 26 34 27 85 2 108 -26 23 -91 31 -112 14z m87 -89
c16 -7 17 -8 2 -8 -21 -1 -48 25 -48 47 1 12 4 10 14 -7 8 -14 22 -28 32 -32z"/>
<path d="M4589 10075 c-3 -2 -85 -5 -182 -5 -106 -1 -177 -5 -177 -11 0 -5 17
-9 38 -8 79 3 268 -14 292 -27 14 -7 49 -20 78 -28 49 -13 53 -13 46 2 -4 10
-7 28 -7 42 1 14 -4 28 -10 32 -13 8 -71 11 -78 3z"/>
<path d="M17415 10070 c-3 -5 1 -10 9 -10 9 0 16 5 16 10 0 6 -4 10 -9 10 -6
0 -13 -4 -16 -10z"/>
<path d="M18435 10070 c-64 -6 -66 -7 -20 -8 28 -1 65 -6 83 -11 28 -9 32 -7
32 10 0 10 -6 18 -12 17 -7 -1 -44 -4 -83 -8z"/>
<path d="M3260 10060 c114 -11 617 -11 600 0 -9 6 -140 9 -340 8 -179 -1 -296
-4 -260 -8z"/>
<path d="M4115 10060 c-16 -7 -14 -8 12 -7 18 1 33 5 33 10 0 9 -19 8 -45 -3z"/>
<path d="M16773 10063 c15 -2 39 -2 55 0 15 2 2 4 -28 4 -30 0 -43 -2 -27 -4z"/>
<path d="M4028 10053 c12 -2 30 -2 40 0 9 3 -1 5 -23 4 -22 0 -30 -2 -17 -4z"/>
<path d="M4740 9940 c0 -20 337 -350 374 -365 20 -9 36 -20 36 -26 0 -6 31
-43 69 -82 80 -84 194 -215 236 -272 34 -47 163 -173 185 -180 25 -9 50 -52
56 -98 10 -68 -13 -183 -43 -215 -19 -20 -26 -23 -33 -13 -6 10 -10 8 -15 -9
l-7 -23 -19 24 c-10 13 -19 20 -19 16 0 -7 -82 45 -100 63 -15 15 -32 9 -27
-10 8 -33 -9 -33 -67 0 -30 16 -61 30 -69 30 -8 0 -22 9 -32 20 -14 15 -21 17
-26 8 -6 -9 -13 -9 -31 0 -13 6 -52 18 -86 27 -35 9 -73 20 -83 26 -10 5 -28
14 -39 19 -11 6 -27 10 -35 10 -8 0 -15 5 -15 10 0 6 -5 10 -11 10 -7 0 -28
10 -48 22 -20 13 -38 23 -41 23 -15 2 -70 37 -70 45 0 6 -4 10 -10 10 -11 0
-36 20 -114 90 -28 25 -44 36 -36 25 14 -19 164 -198 185 -221 42 -46 440
-446 511 -514 49 -47 116 -114 149 -149 33 -35 70 -67 83 -72 30 -12 119 -16
128 -6 9 9 8 138 -1 308 -8 136 -11 133 94 117 l70 -11 77 51 c48 32 88 52
106 52 15 0 28 5 28 11 0 10 -89 107 -230 250 -41 41 -109 101 -150 131 -41
31 -87 66 -101 79 -14 13 -41 38 -60 54 -19 17 -66 68 -105 115 -75 90 -192
205 -259 255 -22 16 -71 64 -110 105 -166 179 -295 293 -295 260z"/>
<path d="M3322 9858 l3 -43 53 -3 c37 -2 52 0 47 8 -4 6 -2 16 4 23 15 19 1
33 -44 46 -64 17 -67 16 -63 -31z"/>
<path d="M16622 9889 c-49 -10 -58 -23 -39 -52 18 -28 66 -41 102 -27 19 7 25
17 25 39 0 43 -23 54 -88 40z"/>
<path d="M15695 9860 c-16 -7 -17 -9 -3 -9 9 -1 20 4 23 9 7 11 7 11 -20 0z"/>
<path d="M15623 9773 c-7 -3 -13 -12 -13 -21 0 -15 2 -15 17 1 18 18 16 27 -4
20z"/>
<path d="M17195 9700 c3 -5 -3 -10 -13 -10 -64 0 -30 -83 39 -94 41 -7 78 6
80 27 0 7 2 22 4 33 3 13 -4 29 -17 40 -14 13 -19 14 -13 4 6 -12 5 -13 -6 -2
-16 14 -83 17 -74 2z"/>
<path d="M2724 9688 c-13 -21 -11 -62 3 -79 18 -21 80 -9 103 20 16 20 76 35
95 23 5 -4 190 -5 410 -2 l400 5 -435 8 c-332 7 -445 12 -478 23 -52 17 -88
18 -98 2z"/>
<path d="M4020 9660 c-12 -8 -10 -10 8 -10 13 0 20 4 17 10 -7 12 -6 12 -25 0z"/>
<path d="M3758 9653 c7 -3 16 -2 19 1 4 3 -2 6 -13 5 -11 0 -14 -3 -6 -6z"/>
<path d="M4114 9638 c-4 -7 -3 -8 4 -4 6 3 16 -2 21 -13 14 -25 40 -35 37 -14
-3 16 -33 43 -47 43 -4 0 -11 -5 -15 -12z"/>
<path d="M15754 9558 c-21 -25 -23 -27 -4 -11 14 12 29 22 35 22 5 0 11 4 13
10 7 21 -15 10 -44 -21z"/>
<path d="M15719 9493 l-34 -38 38 34 c20 19 37 36 37 38 0 8 -8 0 -41 -34z"/>
<path d="M15659 9463 c-13 -16 -12 -17 4 -4 9 7 17 15 17 17 0 8 -8 3 -21 -13z"/>
<path d="M4530 9222 c0 -4 16 -23 35 -42 42 -40 47 -29 7 18 -27 31 -42 40
-42 24z"/>
<path d="M2098 9164 c-4 -4 -5 -18 -2 -30 4 -13 2 -24 -2 -24 -5 0 -9 -20 -9
-45 l-1 -45 37 0 c26 0 49 10 83 35 25 20 46 40 46 45 0 17 -17 11 -34 -12
l-17 -23 5 23 c6 30 -30 70 -69 78 -17 3 -33 2 -37 -2z m49 -126 c-3 -7 -5 -2
-5 12 0 14 2 19 5 13 2 -7 2 -19 0 -25z"/>
<path d="M17809 9160 c-9 -5 -22 -23 -29 -40 -10 -23 -17 -29 -31 -25 -11 4
-19 2 -19 -4 0 -6 4 -11 9 -11 5 0 23 -14 40 -31 17 -17 35 -28 40 -24 5 3 12
1 16 -5 12 -19 53 -10 74 16 22 28 28 78 11 89 -6 4 -8 10 -5 15 14 23 -73 40
-106 20z"/>
<path d="M2050 9091 c0 -46 15 -63 23 -26 2 14 0 28 -5 31 -5 3 -7 12 -4 20 3
8 1 14 -4 14 -6 0 -10 -18 -10 -39z"/>
<path d="M3693 9093 c9 -2 25 -2 35 0 9 3 1 5 -18 5 -19 0 -27 -2 -17 -5z"/>
<path d="M16128 9093 c7 -3 16 -2 19 1 4 3 -2 6 -13 5 -11 0 -14 -3 -6 -6z"/>
<path d="M16178 9093 c12 -2 30 -2 40 0 9 3 -1 5 -23 4 -22 0 -30 -2 -17 -4z"/>
<path d="M16253 9093 c9 -2 23 -2 30 0 6 3 -1 5 -18 5 -16 0 -22 -2 -12 -5z"/>
<path d="M16318 9093 c7 -3 16 -2 19 1 4 3 -2 6 -13 5 -11 0 -14 -3 -6 -6z"/>
<path d="M16373 9094 c-14 -6 20 -44 40 -44 8 0 7 4 -3 10 -13 8 -12 10 4 10
20 0 20 0 0 15 -20 15 -23 16 -41 9z"/>
<path d="M3625 9080 c-11 -5 -36 -9 -55 -10 -29 0 -32 -2 -17 -11 9 -5 38 -9
64 -7 35 2 47 7 49 21 2 18 -9 21 -41 7z"/>
<path d="M4580 9016 c0 -11 537 -553 562 -567 42 -23 -2 25 -160 176 -92 88
-220 214 -284 280 -65 66 -117 116 -118 111z"/>
<path d="M15221 8961 c-28 -27 -51 -47 -51 -46 0 9 -148 -146 -154 -160 -3 -8
-12 -15 -20 -15 -8 0 -18 -9 -21 -21 -4 -12 -12 -18 -21 -15 -8 3 -14 0 -14
-7 0 -7 -29 -28 -65 -46 -36 -19 -68 -38 -71 -43 -3 -4 -9 -6 -13 -4 -4 3 -22
-10 -40 -29 -17 -19 -38 -32 -45 -29 -8 3 -16 -4 -19 -17 -5 -19 -8 -20 -21
-9 -12 9 -16 9 -16 1 0 -7 -8 -20 -17 -29 -16 -16 -16 -16 -10 1 8 21 4 21
-33 2 -17 -9 -30 -23 -30 -33 -1 -16 -1 -16 -11 1 -5 9 -15 17 -20 17 -6 0 -7
-4 -4 -10 3 -5 -1 -10 -9 -10 -9 0 -16 -5 -16 -11 0 -6 -7 -8 -16 -5 -26 10
-66 -24 -61 -51 3 -16 -1 -27 -10 -30 -8 -3 -12 -11 -9 -18 2 -7 2 -16 -2 -20
-12 -11 -12 -107 -1 -121 6 -8 28 -14 47 -14 33 0 46 11 156 124 67 69 139
136 160 150 21 14 35 26 30 26 -4 0 5 10 21 22 56 42 415 412 427 440 7 15 16
28 19 28 4 0 9 7 13 15 8 23 3 19 -53 -34z"/>
<path d="M15235 8840 c-60 -61 -105 -110 -100 -110 6 0 60 50 120 110 61 60
106 110 100 110 -5 0 -59 -50 -120 -110z"/>
<path d="M15062 8669 c-30 -28 -52 -52 -50 -54 3 -4 74 61 97 88 24 30 7 18
-47 -34z"/>
<path d="M14926 8535 c-38 -36 -67 -67 -65 -69 2 -3 13 4 24 13 29 26 120 121
115 121 -3 0 -36 -30 -74 -65z"/>
<path d="M8664 8205 c8 -8 20 -15 27 -15 9 0 8 4 -1 15 -7 8 -19 15 -27 15
-12 0 -12 -2 1 -15z"/>
<path d="M8520 7798 c0 -9 14 -22 30 -30 27 -12 30 -17 30 -60 0 -49 39 -129
102 -209 15 -20 28 -41 28 -46 0 -4 16 -23 35 -41 20 -17 31 -32 25 -32 -6 0
-22 12 -35 26 -57 61 -141 103 -178 88 -16 -6 -15 -34 5 -109 12 -48 183 -257
229 -281 43 -22 148 -24 162 -3 16 26 0 60 -56 120 -94 100 -118 130 -115 140
3 10 73 -36 123 -82 45 -42 175 -93 175 -69 0 6 11 12 24 16 26 6 42 48 32 82
-6 18 -298 303 -430 419 -44 40 -83 65 -104 69 -37 7 -54 -2 -32 -16 12 -8 12
-10 2 -10 -8 0 -22 10 -33 23 -15 18 -18 19 -19 5z"/>
<path d="M8589 7158 c-13 -110 87 -213 144 -150 35 39 19 72 -63 126 -57 38
-79 44 -81 24z"/>
<path d="M9101 5317 c-8 -11 5 -29 57 -83 75 -77 96 -94 112 -94 6 0 21 -7 33
-15 21 -13 23 -13 24 5 1 12 -30 51 -84 104 -75 75 -87 84 -108 76 -19 -7 -23
-6 -18 5 7 19 -1 19 -16 2z"/>
<path d="M11208 5255 c-29 -31 -67 -64 -83 -75 -17 -10 -44 -38 -60 -61 -17
-23 -74 -89 -128 -146 -57 -60 -95 -108 -91 -115 4 -6 3 -8 -3 -5 -12 8 -46
-27 -36 -36 3 -4 1 -7 -4 -7 -6 0 -26 -18 -43 -40 -17 -22 -26 -40 -20 -40 25
0 497 497 527 554 22 42 -2 30 -59 -29z"/>
<path d="M8905 5150 c-7 -12 12 -40 27 -40 13 0 6 43 -9 47 -6 2 -14 -1 -18
-7z"/>
<path d="M10500 4935 c-10 -12 -10 -15 4 -15 9 0 16 7 16 15 0 8 -2 15 -4 15
-2 0 -9 -7 -16 -15z"/>
<path d="M10410 4820 c0 -5 5 -10 10 -10 6 0 10 5 10 10 0 6 -4 10 -10 10 -5
0 -10 -4 -10 -10z"/>
<path d="M10345 4734 c-22 -34 -48 -59 -68 -67 -10 -4 -22 -19 -28 -34 -7 -16
-13 -23 -16 -15 -7 19 -23 4 -23 -23 0 -13 -5 -27 -12 -31 -8 -5 -9 -1 -5 12
5 14 2 12 -13 -6 -25 -31 -40 -86 -75 -264 -14 -77 -31 -149 -37 -160 -10 -18
-9 -19 4 -8 9 7 22 27 29 45 6 18 20 50 30 72 17 40 39 122 59 227 12 62 49
118 142 214 28 29 46 54 40 58 -5 3 -17 -6 -27 -20z"/>
<path d="M11094 4530 c0 -85 2 -120 3 -77 2 42 2 112 0 155 -1 42 -3 7 -3 -78z"/>
<path d="M9881 4414 c0 -11 3 -14 6 -6 3 7 2 16 -1 19 -3 4 -6 -2 -5 -13z"/>
<path d="M9890 4363 c0 -17 5 -35 10 -38 13 -8 13 35 0 55 -7 11 -10 7 -10
-17z"/>
<path d="M11086 4122 c-10 -132 -6 -1432 4 -1432 5 0 10 150 11 333 1 182 4
420 6 527 7 370 4 632 -7 650 -4 6 -10 -29 -14 -78z"/>
<path d="M8942 4145 c-2 -5 -5 -97 -8 -203 -5 -160 -4 -192 7 -190 8 2 17 8
21 13 11 14 10 165 0 165 -5 0 -9 14 -9 30 0 17 5 30 11 30 7 0 7 3 -1 8 -7 4
-13 39 -16 82 -1 41 -4 71 -5 65z"/>
<path d="M10014 3940 c0 -58 1 -81 3 -52 2 28 2 76 0 105 -2 28 -3 5 -3 -53z"/>
<path d="M10012 3760 c0 -19 2 -27 5 -17 2 9 2 25 0 35 -3 9 -5 1 -5 -18z"/>
<path d="M10012 3695 c0 -16 2 -22 5 -12 2 9 2 23 0 30 -3 6 -5 -1 -5 -18z"/>
<path d="M10500 3302 c0 -5 -12 -22 -26 -37 -19 -21 -24 -34 -19 -54 14 -58
68 -86 116 -61 30 17 27 99 -6 130 -14 13 -25 20 -25 16 0 -4 -9 -2 -20 4 -11
6 -20 7 -20 2z"/>
<path d="M9523 3263 c-18 -7 -33 -16 -33 -19 0 -3 6 -2 13 2 10 6 10 4 0 -7
-17 -18 -16 -74 1 -88 8 -7 32 -11 53 -9 65 5 80 71 25 114 -24 19 -30 20 -59
7z"/>
<path d="M10010 2870 c0 -11 4 -20 9 -20 5 0 7 9 4 20 -3 11 -7 20 -9 20 -2 0
-4 -9 -4 -20z"/>
<path d="M10017 2813 c-4 -3 -7 -13 -7 -21 0 -8 -14 -27 -31 -43 -30 -28 -31
-33 -26 -83 3 -30 14 -68 24 -86 38 -67 43 -75 43 -63 0 7 12 16 28 19 52 13
92 69 92 130 0 40 -36 91 -76 106 -31 11 -38 20 -35 41 1 9 -4 9 -12 0z"/>
<path d="M11080 2669 c0 -5 5 -7 10 -4 6 3 10 8 10 11 0 2 -4 4 -10 4 -5 0
-10 -5 -10 -11z"/>
<path d="M8914 2592 c-44 -38 -57 -66 -49 -112 10 -59 59 -100 119 -100 32 0
86 60 93 103 4 30 1 43 -21 72 -27 35 -73 65 -98 65 -7 0 -27 -13 -44 -28z"/>
<path d="M11084 2610 c-22 -9 -66 -62 -77 -91 -9 -28 28 -94 61 -108 80 -33
165 49 132 128 -9 23 -79 83 -92 80 -2 0 -13 -4 -24 -9z"/>
<path d="M9983 1789 l-31 -50 17 -49 16 -49 6 32 6 32 8 -33 c10 -41 15 -44
54 -31 38 13 58 44 35 53 -11 4 -12 10 -5 24 12 22 -32 98 -54 94 -10 -2 -13
2 -9 13 13 34 -13 12 -43 -36z"/>
</g>
</svg>
